# xmcd CD database file
#
# Track frame offsets:
#	150
#	20249
#	45015
#	58439
#	74772
#	90111
#	109121
#	125744
#	138668
#	152187
#	165113
#	180802
#	198356
#
# Disc length: 2810 seconds
#
# Revision: 6
# Processed by: cddbd v1.5.2PL0 Copyright (c) Steve Scherf et al.
# Submitted via: CDex 1.77
#
DISCID=ac0af80d
DTITLE=Nilufer - Yeniden Yetmise
DYEAR=1998
DGENRE=world
TTITLE0=Dunya donuyor
TTITLE1=Bosver
TTITLE2=Oh ya
TTITLE3=Agliyorum yine
TTITLE4=Of aman aman
TTITLE5=Son arzum
TTITLE6=Kim arar seni
TTITLE7=Goreceksin kendini
TTITLE8=Selam soyle
TTITLE9=Neden
TTITLE10=Basima gelenler
TTITLE11=O sevince
TTITLE12=Ne olacak simdi
EXTD=YEAR: 1998
EXTT0=01
EXTT1=02
EXTT2=03
EXTT3=04
EXTT4=05
EXTT5=06
EXTT6=07
EXTT7=08
EXTT8=09
EXTT9=10
EXTT10=11
EXTT11=12
EXTT12=13
PLAYORDER=
